<svg width="32" height="32" viewBox="0 0 32 32" fill="none" xmlns="http://www.w3.org/2000/svg">
<path d="M26.6668 11.1308L18.6668 3.92892C17.9334 3.25534 16.984 2.88296 16.0001 2.88296C15.0162 2.88295 14.0668 3.25534 13.3335 3.92891L5.33347 11.1308C4.90997 11.5197 4.57201 11.9968 4.34211 12.5304C4.1122 13.0639 3.99563 13.6417 4.00015 14.2251L4.00017 26.1917C4.00017 27.2811 4.4216 28.3258 5.17175 29.0961C5.92189 29.8665 6.93931 30.2992 8.00018 30.2992L24.0002 30.2993C25.061 30.2993 26.0785 29.8665 26.8286 29.0962C27.5787 28.3259 28.0002 27.2811 28.0002 26.1917L28.0001 14.2114C28.0028 13.6303 27.8853 13.0552 27.6554 12.5242C27.4256 11.9931 27.0886 11.5182 26.6668 11.1308ZM18.6668 27.5609L13.3335 27.5609L13.3335 20.715C13.3335 20.3519 13.474 20.0036 13.724 19.7469C13.9741 19.4901 14.3132 19.3458 14.6668 19.3458L17.3335 19.3458C17.6871 19.3458 18.0262 19.4901 18.2763 19.7469C18.5263 20.0036 18.6668 20.3519 18.6668 20.715L18.6668 27.5609ZM25.3335 26.1917C25.3335 26.5549 25.193 26.9031 24.943 27.1599C24.6929 27.4167 24.3538 27.5609 24.0002 27.5609L21.3335 27.5609L21.3335 20.715C21.3335 19.6256 20.9121 18.5809 20.1619 17.8106C19.4118 17.0402 18.3943 16.6075 17.3335 16.6075L14.6668 16.6075C13.606 16.6075 12.5885 17.0402 11.8384 17.8105C11.0882 18.5808 10.6668 19.6256 10.6668 20.715L10.6668 27.5609L8.00017 27.5609C7.64655 27.5609 7.30741 27.4166 7.05736 27.1598C6.80731 26.9031 6.66684 26.5548 6.66684 26.1917L6.66681 14.2114C6.66705 14.017 6.7076 13.8249 6.78577 13.6478C6.86393 13.4708 6.97792 13.3128 7.12015 13.1845L15.1201 5.99637C15.3634 5.77686 15.6763 5.65581 16.0001 5.65581C16.324 5.65581 16.6368 5.77687 16.8801 5.99637L24.8801 13.1846C25.0224 13.3129 25.1364 13.4708 25.2145 13.6479C25.2927 13.8249 25.3332 14.017 25.3335 14.2114L25.3335 26.1917Z" fill="#585858"/>
</svg>
