<svg width="32" height="32" viewBox="0 0 32 32" fill="none" xmlns="http://www.w3.org/2000/svg">
<path d="M27.2946 10.236C27.2946 10.236 27.2946 10.236 27.2946 10.1265L27.2146 9.92108C27.1867 9.8775 27.1555 9.8363 27.1212 9.79786C27.0855 9.7399 27.0454 9.68495 27.0012 9.63356L26.8812 9.53771L26.6679 9.42818L16.6679 3.08888C16.456 2.95287 16.2111 2.88076 15.9612 2.88076C15.7113 2.88076 15.4665 2.95287 15.2545 3.08887L5.33456 9.42814L5.21456 9.53767L5.09456 9.63351C5.05036 9.68491 5.01023 9.73985 4.97456 9.79782C4.94028 9.83626 4.90907 9.87746 4.88122 9.92104L4.80122 10.1264C4.80122 10.1264 4.80122 10.1264 4.80122 10.236C4.78812 10.3542 4.78812 10.4737 4.80122 10.5919L4.80125 22.5585C4.80079 22.7912 4.85809 23.0202 4.96774 23.2238C5.07739 23.4274 5.23576 23.599 5.42792 23.7223L15.4279 30.0616C15.4895 30.1007 15.5571 30.1285 15.6279 30.1438C15.6279 30.1438 15.6946 30.1438 15.7346 30.1438C15.9602 30.2173 16.2024 30.2173 16.4279 30.1438C16.4279 30.1438 16.4946 30.1438 16.5346 30.1438C16.6054 30.1285 16.673 30.1007 16.7346 30.0616L26.6679 23.7224C26.8601 23.5991 27.0184 23.4275 27.1281 23.2238C27.2377 23.0202 27.295 22.7913 27.2946 22.5586L27.2946 10.592C27.3077 10.4737 27.3077 10.3543 27.2946 10.236ZM14.6679 26.447L7.33458 21.7918L7.33456 13.0565L14.6679 17.698L14.6679 26.447ZM16.0012 15.3293L8.53456 10.5919L16.0012 5.8683L23.4679 10.592L16.0012 15.3293ZM24.6679 21.7918L17.3346 26.447L17.3346 17.698L24.6679 13.0565L24.6679 21.7918Z" fill="#FFB8DA"/>
</svg>
