<svg width="32" height="32" viewBox="0 0 27 27" fill="none" xmlns="http://www.w3.org/2000/svg">
<path d="M6.345 19.125L5.54625 19.9237C5.33672 20.1345 5.21911 20.4197 5.21911 20.7169C5.21911 21.0141 5.33672 21.2992 5.54625 21.51C5.75703 21.7195 6.04217 21.8371 6.33938 21.8371C6.63658 21.8371 6.92172 21.7195 7.1325 21.51L7.93125 20.7113C8.11555 20.496 8.21186 20.2192 8.20093 19.9361C8.18999 19.6529 8.07262 19.3843 7.87226 19.184C7.6719 18.9836 7.40332 18.8663 7.12018 18.8553C6.83705 18.8444 6.56021 18.9407 6.345 19.125ZM5.625 13.5C5.625 13.2016 5.50647 12.9155 5.2955 12.7045C5.08452 12.4935 4.79837 12.375 4.5 12.375H3.375C3.07663 12.375 2.79048 12.4935 2.5795 12.7045C2.36853 12.9155 2.25 13.2016 2.25 13.5C2.25 13.7984 2.36853 14.0845 2.5795 14.2955C2.79048 14.5065 3.07663 14.625 3.375 14.625H4.5C4.79837 14.625 5.08452 14.5065 5.2955 14.2955C5.50647 14.0845 5.625 13.7984 5.625 13.5ZM13.5 5.625C13.7984 5.625 14.0845 5.50647 14.2955 5.2955C14.5065 5.08452 14.625 4.79837 14.625 4.5V3.375C14.625 3.07663 14.5065 2.79048 14.2955 2.5795C14.0845 2.36853 13.7984 2.25 13.5 2.25C13.2016 2.25 12.9155 2.36853 12.7045 2.5795C12.4935 2.79048 12.375 3.07663 12.375 3.375V4.5C12.375 4.79837 12.4935 5.08452 12.7045 5.2955C12.9155 5.50647 13.2016 5.625 13.5 5.625ZM6.345 7.93125C6.55454 8.13909 6.83737 8.25626 7.1325 8.2575C7.28056 8.25836 7.42733 8.22998 7.56439 8.17399C7.70146 8.11801 7.82613 8.03552 7.93125 7.93125C8.14078 7.72047 8.25839 7.43533 8.25839 7.13812C8.25839 6.84092 8.14078 6.55578 7.93125 6.345L7.1325 5.54625C6.91729 5.36195 6.64045 5.26564 6.35732 5.27657C6.07418 5.28751 5.8056 5.40488 5.60524 5.60524C5.40488 5.8056 5.28751 6.07418 5.27657 6.35732C5.26564 6.64045 5.36195 6.91729 5.54625 7.1325L6.345 7.93125ZM19.845 8.2575C20.1401 8.25626 20.423 8.13909 20.6325 7.93125L21.4312 7.1325C21.549 7.03165 21.6447 6.90754 21.7122 6.76797C21.7797 6.62839 21.8177 6.47637 21.8236 6.32143C21.8296 6.1665 21.8035 6.012 21.747 5.86764C21.6904 5.72327 21.6046 5.59215 21.495 5.48252C21.3853 5.37288 21.2542 5.28709 21.1099 5.23053C20.9655 5.17397 20.811 5.14787 20.6561 5.15385C20.5011 5.15984 20.3491 5.19778 20.2095 5.26531C20.07 5.33283 19.9459 5.42848 19.845 5.54625L19.125 6.345C18.9155 6.55578 18.7979 6.84092 18.7979 7.13812C18.7979 7.43533 18.9155 7.72047 19.125 7.93125C19.3233 8.12853 19.588 8.24485 19.8675 8.2575H19.845ZM23.625 12.375H22.5C22.2016 12.375 21.9155 12.4935 21.7045 12.7045C21.4935 12.9155 21.375 13.2016 21.375 13.5C21.375 13.7984 21.4935 14.0845 21.7045 14.2955C21.9155 14.5065 22.2016 14.625 22.5 14.625H23.625C23.9234 14.625 24.2095 14.5065 24.4205 14.2955C24.6315 14.0845 24.75 13.7984 24.75 13.5C24.75 13.2016 24.6315 12.9155 24.4205 12.7045C24.2095 12.4935 23.9234 12.375 23.625 12.375ZM13.5 21.375C13.2016 21.375 12.9155 21.4935 12.7045 21.7045C12.4935 21.9155 12.375 22.2016 12.375 22.5V23.625C12.375 23.9234 12.4935 24.2095 12.7045 24.4205C12.9155 24.6315 13.2016 24.75 13.5 24.75C13.7984 24.75 14.0845 24.6315 14.2955 24.4205C14.5065 24.2095 14.625 23.9234 14.625 23.625V22.5C14.625 22.2016 14.5065 21.9155 14.2955 21.7045C14.0845 21.4935 13.7984 21.375 13.5 21.375ZM20.655 19.125C20.4413 19.0061 20.1946 18.9601 19.9524 18.994C19.7102 19.0278 19.4856 19.1397 19.3126 19.3126C19.1397 19.4856 19.0278 19.7102 18.994 19.9524C18.9601 20.1946 19.0061 20.4413 19.125 20.655L19.9237 21.4538C20.1345 21.6633 20.4197 21.7809 20.7169 21.7809C21.0141 21.7809 21.2992 21.6633 21.51 21.4538C21.7195 21.243 21.8371 20.9578 21.8371 20.6606C21.8371 20.3634 21.7195 20.0783 21.51 19.8675L20.655 19.125ZM13.5 7.3125C12.2762 7.3125 11.0799 7.67539 10.0624 8.35528C9.04488 9.03517 8.25181 10.0015 7.7835 11.1321C7.31518 12.2628 7.19265 13.5069 7.43139 14.7071C7.67014 15.9074 8.25944 17.0099 9.12478 17.8752C9.99011 18.7406 11.0926 19.3299 12.2929 19.5686C13.4931 19.8074 14.7372 19.6848 15.8679 19.2165C16.9985 18.7482 17.9648 17.9551 18.6447 16.9376C19.3246 15.9201 19.6875 14.7238 19.6875 13.5C19.6845 11.8599 19.0317 10.2878 17.8719 9.12806C16.7122 7.96832 15.1401 7.31547 13.5 7.3125ZM13.5 17.4375C12.7212 17.4375 11.96 17.2066 11.3124 16.7739C10.6649 16.3413 10.1602 15.7263 9.86222 15.0068C9.5642 14.2873 9.48623 13.4956 9.63816 12.7318C9.79009 11.968 10.1651 11.2664 10.7158 10.7158C11.2664 10.1651 11.968 9.79009 12.7318 9.63816C13.4956 9.48623 14.2873 9.5642 15.0068 9.86222C15.7263 10.1602 16.3413 10.6649 16.7739 11.3124C17.2066 11.96 17.4375 12.7212 17.4375 13.5C17.4375 14.5443 17.0227 15.5458 16.2842 16.2842C15.5458 17.0227 14.5443 17.4375 13.5 17.4375Z" fill="#FF9CCC"/>
</svg>
