<svg width="96" height="96" viewBox="0 0 96 96" fill="none" xmlns="http://www.w3.org/2000/svg">
<path d="M33.7904 4.60719C44.5856 -5.84851 53.3982 3.91015 56.8482 10.0964L62.6126 24.7344C64.3157 36.6278 90.3849 82.3957 60.6474 71.6544C53.0489 68.9098 60.2543 50.024 57.6341 39.8952C55.538 31.792 51.7387 22.5126 49.1185 18.461C38.2205 1.60916 24.0957 35.4515 21.9995 63.5512C20.558 82.8745 3.00315 72.7 0.644974 65.6424C-1.18916 60.1531 1.14257 54.5332 4.44424 45.7765C9.81566 31.5306 22.9952 15.0629 33.7904 4.60719Z" fill="#587CD8" fill-opacity="0.8"/>
<path d="M29.0741 45.7765C26.5849 49.6974 25.6678 51.7886 26.5849 54.2718C30.6462 60.8066 37.0657 47.8677 49.1185 47.8677C49.6426 47.432 50.3763 44.8094 49.1185 37.8041C47.8608 30.7987 35.2315 40.2002 29.0741 45.7765Z" fill="#587CD8" fill-opacity="0.8"/>
<path d="M49.1185 54.2718C45.8843 53.5863 44.9249 57.2188 44.8495 59.1208C45.8019 66.9782 48.4624 86.9673 53.3345 91.0574C59.2221 96 64.0707 96 70.9973 96C84.8504 96 90.3051 79.3663 90.9111 69.7663C91.5172 60.1663 94.7207 51.7069 95.9329 45.7765C97.145 39.8461 81.5603 41.2515 79.4823 43.2475C77.4043 45.2436 78.097 47.8677 81.5603 54.2718C85.0236 60.6759 81.214 74.4238 79.4823 82.6931C77.7507 90.9624 67.1011 91.4376 60.6474 88.4911C54.1938 85.5446 53.5077 73.5683 54.7198 57.6C55.932 41.6317 53.1614 55.1287 49.1185 54.2718Z" fill="#587CD8" fill-opacity="0.8"/>
</svg>
